<?xml version="1.0" encoding="UTF-8"?>
<svg version="1.1" viewBox="0 0 2048 591" width="1280" height="1280" xmlns="http://www.w3.org/2000/svg">
<path transform="translate(0)" d="m0 0h2048v591h-2048z" fill="#FEFEFE"/>
<path transform="translate(1562,179)" d="m0 0h20l16 3 15 6 9 7 8 8 8 13 6 14 4-2 11-10 14-11 16-11 16-9 16-6 10-2h20l15 3 13 5 9 6 5 4 9 12 8 16 5 20 1 169 2 9 3 3 3 1 15 1h21l1 1v15l-1 1h-132v-16l4-1 31-1 6-2 3-3 1-3v-164l-2-15-3-10-7-10-11-8-9-4-9-2h-20l-11 3-16 8-11 7-13 10-12 11-2 1v169l2 8 3 3 3 1 37 2v15l-1 1h-132v-16l11-1 25-1 5-2 3-4 1-3v-161l-2-18-4-11-6-8-7-6-12-6-9-2h-20l-14 4-15 8-14 10-15 13-3 2v166l1 12 5 5 2 1 37 2 1 2-1 14h-133v-16l6-1 30-1 7-3 2-5v-184l-4-8-7-4-10-2-23-3-1-1v-12l31-10 42-13 13-2 1 1 1 41 5-2 10-9 15-11 15-9 15-7 13-4z" fill="#26A5CA"/>
<path transform="translate(896,179)" d="m0 0h17l16 3 11 4 9 5 10 9 8 11 6 13 3 7 8-6 12-11 16-12 15-10 16-8 14-4 6-1h20l19 4 14 7 11 9 7 10 7 14 4 14 2 18 1 161 3 8 4 3 7 1 31 1v15l-1 1h-132v-17l37-1 5-3 3-8v-156l-2-19-4-13-6-8-13-9-11-4-5-1h-20l-14 4-17 9-19 14-10 9-5 4v172l3 7 5 2 10 1 27 1v15l-1 1-116 1-16-1-1-4 1-12 1-1 35-1 6-3 3-7v-160l-3-22-5-10-7-8-14-8-11-3h-20l-13 4-16 8-14 10-15 13-3 2v173l3 9 5 2 11 1 26 1v15l-1 1h-132v-16l1-1 35-1 5-2 3-4 1-3v-181l-3-8-6-5-6-2-28-3-2-1v-13l73-23 13-2 1 1 1 42 8-6 13-11 13-9 14-8 18-7z" fill="#26A5CA"/>
<path transform="translate(54,20)" d="m0 0h362l2 7 14 65 4 18-1 4-13 6-5-1-9-17-12-18-8-10-9-10-13-10-16-8-12-4-11-2-65-1v369l3 10 4 5 8 3 45 1 1 1v16l-1 1h-176v-18l44-1 9-3 5-6 2-4 1-374-67 1-17 4-14 6-12 8-10 9-9 9-9 13-13 21-5 9-5 1-13-6v-7l18-81 1-5z" fill="#26A5CA"/>
<path transform="translate(532,179)" d="m0 0h28l17 3 18 6 16 9 12 11 9 14 5 11 3 15 1 141 4 16 5 8 5 3h11l9-4 6-5 6-8 3-1 8 4-2 6-9 14-11 13-11 8-11 5-13 3-10-1-12-6-11-11-8-13-5 1-9 6-17 9-21 8-15 4-19 3h-10l-15-2-16-4-13-7-10-9-6-8-4-9-2-9v-20l4-15 6-12 7-9 10-10 10-7 11-7 19-8 30-10 23-5 21-3 19-1v-53l-3-13-7-13-8-9-10-7-9-3-7-1h-12l-13 2-10 4-10 9-5 8-9 27-6 7-7 4-10 1-10-3-8-6-5-8-1-4v-9l5-12 7-9 9-8 19-10 18-6 19-4z" fill="#26A5CA"/>
<path transform="translate(1310,181)" d="m0 0 5 1 1 1 1 233 2 7 5 4 37 1 1 1v15l-1 1h-132v-16l36-2 5-2 3-4 1-4v-177l-3-9-6-5-11-3-25-3v-13l22-8 54-17z" fill="#26A5CA"/>
<path transform="translate(587,312)" d="m0 0h12v90l-21 14-19 9-16 4-8 1h-11l-10-2-12-5-9-9-4-7-2-10v-15l4-18 8-16 11-12 13-8 14-6 16-5 16-3z" fill="#FEFEFE"/>
<path transform="translate(1286,36)" d="m0 0h16l9 3 8 6 7 8 5 11v15l-5 12-10 10-10 5-7 2h-7l-13-4-9-7-6-7-4-10-1-5v-7l4-13 6-8 8-7z" fill="#26A5CA"/>
</svg>
